# xmcd
#
# Track frame offsets: 
#        150
#        24179
#        63540
#        86577
#        139178
#        163649
#        191712
#        211086
#
# Disc length: 3299 seconds
#
# Revision: 1
# Processed by: cddbd v1.5.2PL0 Copyright (c) Steve Scherf et al.
# Submitted via: ExactAudioCopy v0.99pb5
#
DISCID=670ce108
DTITLE=Gil Scott-Heron - Tour De Force (Live) [CD1)
DYEAR=2004
DGENRE=Jazz+Funk
TTITLE0=Washington D.C.
TTITLE1=Winter In America
TTITLE2=Is That Jazz
TTITLE3=Blue Collar
TTITLE4=Johannesburg
TTITLE5=Three Miles Down
TTITLE6=Gun
TTITLE7=Save The Children
EXTD=
EXTT0=
EXTT1=
EXTT2=
EXTT3=
EXTT4=
EXTT5=
EXTT6=
EXTT7=
PLAYORDER=
